<?xml version="1.0" encoding="UTF-8"?>
<svg width="24px" height="24px" viewBox="0 0 24 24" version="1.1" xmlns="http://www.w3.org/2000/svg" xmlns:xlink="http://www.w3.org/1999/xlink">
    <!-- Generator: Sketch 55 (78076) - https://sketchapp.com -->
    <title>Group 5</title>
    <desc>Created with Sketch.</desc>
    <g id="Page-1" stroke="none" stroke-width="1" fill="none" fill-rule="evenodd">
        <g id="Blog-3" transform="translate(-410.000000, -665.000000)">
            <g id="Group-5" transform="translate(410.000000, 665.000000)">
                <rect id="Rectangle" stroke="#213642" x="0.5" y="0.5" width="23" height="23" rx="11.5"></rect>
                <g id="post-twitter" transform="translate(7.000000, 8.000000)" fill="#213642" fill-rule="nonzero">
                    <path d="M9.9,2.40850141 C9.81538462,6.59031959 7.36153846,9.4994105 3.63846154,9.68122868 C2.11538462,9.77213777 1.01538462,9.22668323 0,8.59031959 C1.1,8.77213777 2.53846154,8.31759232 3.3,7.59031959 C2.2,7.4994105 1.52307692,6.86304686 1.18461538,5.86304686 C1.52307692,5.95395596 1.86153846,5.86304686 2.11538462,5.86304686 C1.1,5.4994105 0.423076923,4.86304686 0.338461538,3.40850141 C0.592307692,3.59031959 0.930769231,3.68122868 1.26923077,3.68122868 C0.507692308,3.22668323 -7.51535586e-16,1.4994105 0.592307692,0.40850141 C1.69230769,1.68122868 3.04615385,2.77213777 5.24615385,2.95395596 C4.65384615,0.40850141 7.86923077,-0.955134954 9.13846154,0.772137773 C9.73076923,0.681228682 10.1538462,0.40850141 10.5769231,0.226683228 C10.4076923,0.863046864 10.0692308,1.22668323 9.64615385,1.59031959 C10.0692308,1.4994105 10.4923077,1.40850141 10.8307692,1.22668323 C10.7461538,1.68122868 10.3230769,2.04486505 9.9,2.40850141 Z" id="Shape"></path>
                </g>
            </g>
        </g>
    </g>
</svg>